<?xml version="1.0" standalone="no"?>
<!DOCTYPE svg PUBLIC "-//W3C//DTD SVG 20010904//EN"
 "http://www.w3.org/TR/2001/REC-SVG-20010904/DTD/svg10.dtd">
<svg version="1.0" xmlns="http://www.w3.org/2000/svg"
 width="258.000000pt" height="240.000000pt" viewBox="0 85 258.000000 240.000000"
 preserveAspectRatio="xMidYMid meet">

<g transform="translate(0.000000,240.000000) scale(0.100000,-0.100000)"
fill="#000000" stroke="none">
<path d="M1478 2340 c22 -21 22 -40 2 -115 -5 -16 -11 -52 -15 -80 -10 -86
-15 -102 -36 -112 -18 -7 -13 -10 30 -19 48 -10 50 -9 35 7 -13 14 -13 26 -3
85 6 38 18 76 25 85 8 9 10 19 5 25 -5 5 -5 33 2 66 6 32 8 60 6 62 -2 2 -20
6 -39 10 l-34 6 22 -20z"/>
<path d="M1117 2338 c27 -13 30 -29 38 -185 6 -111 5 -122 -12 -132 -16 -9
-15 -10 9 -11 15 0 31 7 36 16 7 13 13 14 30 5 30 -16 88 -14 106 4 30 30 33
135 5 187 -14 25 -56 40 -91 33 -40 -9 -35 -25 6 -18 29 5 37 1 52 -23 27 -40
27 -150 0 -170 -27 -19 -58 -18 -83 5 -17 17 -21 37 -27 146 -4 70 -10 134
-13 141 -3 9 -20 14 -42 13 -33 0 -34 -1 -14 -11z"/>
<path d="M1550 2230 c-12 -8 -9 -10 12 -10 58 0 66 -32 44 -157 -12 -69 -12
-72 8 -77 38 -10 52 -7 32 7 -16 11 -16 20 -5 105 12 87 12 94 -7 112 -24 24
-64 33 -84 20z"/>
<path d="M870 2180 c-11 -11 -20 -24 -20 -29 0 -5 -18 -7 -40 -4 -43 6 -90
-16 -90 -42 0 -17 -12 -19 -26 -5 -6 6 -21 6 -39 1 -17 -5 -23 -10 -14 -10 25
-1 41 -27 71 -110 24 -69 25 -77 11 -93 -14 -16 -12 -16 36 -1 47 15 49 17 28
28 -29 14 -71 128 -62 172 6 31 21 43 56 43 24 0 52 -45 80 -127 11 -35 24
-63 27 -63 4 0 17 3 29 6 l22 6 -20 17 c-18 14 -45 74 -66 143 -13 42 46 84
84 60 14 -9 73 -146 73 -169 0 -11 7 -13 28 -8 15 3 32 11 37 17 7 7 7 9 0 5
-20 -11 -37 11 -67 84 -16 40 -34 79 -40 86 -16 20 -75 16 -98 -7z"/>
<path d="M1808 2155 c2 -13 -7 -49 -21 -82 -47 -108 -45 -132 19 -153 44 -15
56 -7 15 10 -45 18 -46 40 -7 130 20 45 36 85 36 89 0 4 -11 13 -23 18 -22 10
-23 9 -19 -12z"/>
<path d="M1942 2101 c9 -16 7 -30 -16 -83 -16 -34 -38 -71 -50 -81 -11 -10
-15 -16 -8 -12 8 4 12 -2 12 -19 0 -14 4 -26 9 -26 5 0 18 -3 28 -7 16 -6 16
-5 4 10 -12 15 -8 29 28 113 24 53 41 97 39 99 -7 6 -47 25 -52 25 -4 0 -1 -9
6 -19z"/>
<path d="M2106 2016 c3 -9 -3 -46 -14 -83 -12 -38 -24 -88 -28 -112 -5 -34
-14 -47 -38 -62 -35 -21 -68 -24 -97 -9 -13 8 -19 7 -19 0 0 -16 52 -32 85
-26 30 7 42 13 178 105 42 29 86 53 97 54 11 1 20 3 20 6 0 5 -29 28 -55 43
-17 10 -18 9 -7 -4 7 -9 10 -22 6 -31 -5 -14 -79 -68 -131 -95 l-22 -12 19 68
c31 112 38 125 61 119 27 -7 11 12 -30 36 -26 15 -30 15 -25 3z"/>
<path d="M448 1964 c-45 -24 -66 -84 -30 -84 13 0 17 8 17 31 0 21 7 36 22 46
19 13 24 12 55 -16 l33 -30 -42 -43 c-52 -52 -56 -86 -16 -118 30 -24 69 -20
91 7 18 25 14 38 -6 20 -28 -26 -59 -21 -75 11 -16 31 -13 48 16 80 27 29 42
28 63 -7 10 -16 28 -35 41 -42 20 -11 26 -10 40 4 16 16 16 17 -4 17 -14 0
-32 14 -49 38 -74 101 -102 116 -156 86z"/>
<path d="M180 1824 c-17 -15 -28 -29 -25 -32 2 -3 14 3 25 13 13 12 27 15 45
11 28 -7 37 17 9 28 -21 8 -19 9 -54 -20z"/>
<path d="M2347 1793 c-18 -17 -6 -32 22 -27 24 5 32 1 46 -20 16 -25 16 -27 0
-52 -9 -15 -26 -29 -36 -31 -10 -3 -19 -11 -19 -19 0 -14 -27 -32 -69 -45 -16
-4 -19 -8 -8 -8 19 -1 22 -12 7 -27 -7 -7 -3 -17 11 -30 21 -18 22 -18 16 -1
-7 19 -5 21 87 106 43 38 47 47 42 75 -9 46 -78 101 -99 79z"/>
<path d="M137 1767 c-13 -34 -7 -55 24 -81 37 -31 44 -32 116 -6 32 11 67 20
79 20 54 0 72 -69 29 -110 -19 -18 -31 -22 -60 -17 -37 6 -45 -2 -20 -23 40
-33 125 42 125 110 0 31 -5 43 -29 59 -36 26 -57 26 -112 1 -79 -36 -132 -21
-141 40 -3 22 -4 22 -11 7z"/>
<path d="M2225 1705 c-14 -13 -25 -30 -25 -38 0 -18 38 -67 52 -67 6 0 4 8 -5
18 -23 25 -21 59 2 72 23 12 63 13 77 3 5 -5 -1 2 -14 15 -30 29 -57 28 -87
-3z"/>
<path d="M1174 1629 c-3 -6 12 -30 35 -52 32 -33 43 -39 53 -29 9 9 4 21 -27
52 -42 43 -50 46 -61 29z"/>
<path d="M1295 1560 c-11 -4 -66 -55 -123 -112 -86 -88 -109 -117 -146 -193
-26 -53 -60 -106 -84 -129 -33 -32 -39 -42 -30 -56 18 -29 106 67 151 163 31
67 53 94 148 188 107 107 111 110 130 93 10 -9 19 -21 19 -27 0 -5 -20 -28
-45 -52 -36 -34 -42 -44 -30 -49 23 -8 19 -10 61 29 41 39 55 43 74 20 14 -17
3 -34 -50 -81 -20 -18 -22 -24 -12 -37 11 -13 19 -9 58 30 44 43 46 44 65 27
26 -24 25 -30 -21 -74 -22 -21 -40 -43 -40 -48 0 -26 29 -16 71 25 45 43 45
44 64 23 18 -20 16 -22 -95 -135 l-114 -115 29 -30 c44 -46 26 -55 -91 -43
-85 8 -100 7 -118 -8 -17 -14 -18 -19 -7 -33 7 -9 18 -12 25 -8 6 4 62 7 124
7 64 0 116 4 120 10 4 6 16 17 27 25 18 14 19 14 7 -2 -7 -9 -9 -19 -4 -22 6
-3 7 -52 5 -113 -5 -100 -4 -110 17 -135 27 -34 37 -35 70 -3 l26 25 95 -95
c52 -53 104 -98 117 -101 32 -9 61 13 190 142 89 90 112 119 112 141 0 23 -23
51 -117 144 -99 97 -131 122 -197 153 -43 21 -98 56 -122 78 -30 27 -49 38
-61 34 -29 -12 70 -101 162 -147 65 -32 100 -59 188 -146 59 -59 106 -113 105
-121 -2 -8 -11 -20 -20 -26 -15 -9 -26 -3 -63 34 -37 37 -47 42 -55 30 -7 -11
1 -26 32 -57 41 -42 45 -67 12 -80 -10 -4 -30 9 -58 36 -33 32 -45 38 -54 29
-9 -9 -3 -21 29 -54 42 -43 46 -68 13 -81 -10 -4 -31 9 -60 38 -34 34 -47 40
-56 31 -9 -9 -2 -23 35 -60 46 -47 47 -49 29 -65 -10 -9 -23 -17 -28 -17 -5 0
-58 50 -119 110 l-111 111 -24 -26 c-46 -49 -53 -36 -47 83 l6 107 -52 53 -52
53 98 94 c130 126 131 131 41 227 -100 106 -186 185 -209 191 -11 3 -29 2 -40
-3z"/>
<path d="M984 1439 c-3 -6 12 -30 35 -52 32 -33 43 -39 53 -29 9 9 4 21 -27
52 -42 43 -50 46 -61 29z"/>
<path d="M1911 1116 c-46 -46 -48 -51 -26 -60 17 -6 95 58 95 79 0 29 -30 21
-69 -19z"/>
<path d="M824 1074 c-30 -16 -217 -200 -246 -242 -8 -12 -13 -33 -11 -46 3
-14 53 -72 117 -134 94 -92 126 -116 192 -148 45 -21 99 -56 126 -83 38 -35
50 -43 60 -33 21 21 -74 107 -167 152 -67 33 -97 56 -188 148 l-108 108 20 25
20 24 45 -45 c36 -34 49 -41 58 -32 9 9 4 20 -25 50 -40 41 -46 62 -22 82 14
11 22 7 59 -29 29 -29 48 -40 60 -35 14 5 9 14 -30 56 -44 47 -45 50 -28 69 9
10 21 19 27 19 5 0 28 -20 52 -45 34 -36 44 -43 53 -32 9 10 2 23 -29 56 -42
43 -48 73 -15 79 13 3 52 -29 127 -104 l109 -108 29 28 c46 44 54 29 46 -93
-6 -92 -5 -109 9 -120 9 -8 19 -11 22 -9 3 3 7 60 9 127 l5 121 -30 33 -29 32
-30 -30 -31 -29 -98 96 c-53 52 -104 98 -113 101 -9 3 -29 -1 -45 -9z"/>
<path d="M2101 926 c-22 -22 -31 -40 -27 -51 4 -12 10 -13 23 -6 31 16 75 69
69 80 -12 19 -31 12 -65 -23z"/>
<path d="M526 711 c-34 -35 -37 -42 -26 -56 12 -15 18 -12 52 25 37 39 44 60
22 67 -5 2 -27 -15 -48 -36z"/>
<path d="M1466 673 c-3 -4 -55 -6 -114 -4 -101 2 -109 0 -137 -23 l-30 -24 33
-35 33 -34 -101 -96 c-137 -132 -137 -124 28 -289 106 -106 133 -128 157 -128
25 0 50 20 141 113 94 95 118 126 157 202 25 50 61 106 81 124 37 36 44 55 25
67 -12 7 -119 -93 -119 -112 0 -6 -15 -40 -33 -75 -22 -44 -66 -99 -138 -173
-99 -102 -107 -108 -127 -95 -30 19 -28 27 20 76 33 34 39 46 30 55 -9 9 -22
3 -56 -31 -29 -29 -50 -42 -60 -38 -33 13 -29 38 11 80 37 38 46 67 22 67 -5
0 -26 -18 -46 -40 -43 -46 -46 -46 -72 -22 -18 16 -17 18 27 64 35 37 43 51
34 60 -8 8 -22 1 -57 -31 -38 -35 -48 -40 -65 -31 -11 6 -20 16 -20 23 0 7 47
59 105 117 58 58 105 110 105 116 0 6 -9 19 -20 29 -11 10 -20 25 -20 33 0 13
16 14 108 9 109 -6 132 -1 132 29 0 14 -25 26 -34 17z"/>
<path d="M715 520 c-33 -34 -36 -41 -25 -55 12 -14 18 -11 56 26 33 33 41 46
32 56 -15 19 -20 17 -63 -27z"/>
<path d="M1583 243 c-8 -3 2 -21 29 -49 33 -35 44 -42 55 -32 12 9 7 18 -24
50 -38 39 -40 40 -60 31z"/>
<path d="M1387 53 c-12 -12 36 -53 62 -53 l25 0 -29 30 c-28 30 -45 36 -58 23z"/>
</g>
</svg>
